<svg width="128" height="28" viewBox="0 0 128 28" fill="none" xmlns="http://www.w3.org/2000/svg">
<path d="M12 3.5C12.1989 3.5 12.3897 3.57902 12.5303 3.71967C12.671 3.86032 12.75 4.05109 12.75 4.25V5.75C12.75 5.94891 12.671 6.13968 12.5303 6.28033C12.3897 6.42098 12.1989 6.5 12 6.5C11.8011 6.5 11.6103 6.42098 11.4697 6.28033C11.329 6.13968 11.25 5.94891 11.25 5.75V4.25C11.25 4.05109 11.329 3.86032 11.4697 3.71967C11.6103 3.57902 11.8011 3.5 12 3.5ZM12 18.5C13.1935 18.5 14.3381 18.0259 15.182 17.182C16.0259 16.3381 16.5 15.1935 16.5 14C16.5 12.8065 16.0259 11.6619 15.182 10.818C14.3381 9.97411 13.1935 9.5 12 9.5C10.8065 9.5 9.66193 9.97411 8.81802 10.818C7.97411 11.6619 7.5 12.8065 7.5 14C7.5 15.1935 7.97411 16.3381 8.81802 17.182C9.66193 18.0259 10.8065 18.5 12 18.5ZM12 17C11.2044 17 10.4413 16.6839 9.87868 16.1213C9.31607 15.5587 9 14.7956 9 14C9 13.2044 9.31607 12.4413 9.87868 11.8787C10.4413 11.3161 11.2044 11 12 11C12.7956 11 13.5587 11.3161 14.1213 11.8787C14.6839 12.4413 15 13.2044 15 14C15 14.7956 14.6839 15.5587 14.1213 16.1213C13.5587 16.6839 12.7956 17 12 17ZM21.75 14.75C21.9489 14.75 22.1397 14.671 22.2803 14.5303C22.421 14.3897 22.5 14.1989 22.5 14C22.5 13.8011 22.421 13.6103 22.2803 13.4697C22.1397 13.329 21.9489 13.25 21.75 13.25H20.25C20.0511 13.25 19.8603 13.329 19.7197 13.4697C19.579 13.6103 19.5 13.8011 19.5 14C19.5 14.1989 19.579 14.3897 19.7197 14.5303C19.8603 14.671 20.0511 14.75 20.25 14.75H21.75ZM12 21.5C12.1989 21.5 12.3897 21.579 12.5303 21.7197C12.671 21.8603 12.75 22.0511 12.75 22.25V23.75C12.75 23.9489 12.671 24.1397 12.5303 24.2803C12.3897 24.421 12.1989 24.5 12 24.5C11.8011 24.5 11.6103 24.421 11.4697 24.2803C11.329 24.1397 11.25 23.9489 11.25 23.75V22.25C11.25 22.0511 11.329 21.8603 11.4697 21.7197C11.6103 21.579 11.8011 21.5 12 21.5ZM3.75 14.75C3.94891 14.75 4.13968 14.671 4.28033 14.5303C4.42098 14.3897 4.5 14.1989 4.5 14C4.5 13.8011 4.42098 13.6103 4.28033 13.4697C4.13968 13.329 3.94891 13.25 3.75 13.25H2.25C2.05109 13.25 1.86032 13.329 1.71967 13.4697C1.57902 13.6103 1.5 13.8011 1.5 14C1.5 14.1989 1.57902 14.3897 1.71967 14.5303C1.86032 14.671 2.05109 14.75 2.25 14.75H3.75ZM4.719 6.719C4.78867 6.64915 4.87143 6.59374 4.96255 6.55593C5.05367 6.51812 5.15135 6.49866 5.25 6.49866C5.34865 6.49866 5.44633 6.51812 5.53745 6.55593C5.62857 6.59374 5.71133 6.64915 5.781 6.719L7.281 8.219C7.35073 8.28873 7.40605 8.37152 7.44379 8.46262C7.48152 8.55373 7.50095 8.65138 7.50095 8.75C7.50095 8.84862 7.48152 8.94627 7.44379 9.03738C7.40605 9.12848 7.35073 9.21127 7.281 9.281C7.21127 9.35073 7.12848 9.40605 7.03738 9.44379C6.94627 9.48152 6.84862 9.50095 6.75 9.50095C6.65138 9.50095 6.55373 9.48152 6.46262 9.44379C6.37152 9.40605 6.28873 9.35073 6.219 9.281L4.719 7.781C4.64915 7.71133 4.59374 7.62857 4.55593 7.53745C4.51812 7.44633 4.49866 7.34865 4.49866 7.25C4.49866 7.15135 4.51812 7.05367 4.55593 6.96255C4.59374 6.87143 4.64915 6.78867 4.719 6.719ZM5.781 21.281C5.71137 21.3507 5.62868 21.4061 5.53766 21.4438C5.44664 21.4816 5.34908 21.5011 5.25053 21.5012C5.15198 21.5012 5.05439 21.4819 4.96332 21.4442C4.87225 21.4066 4.78948 21.3514 4.71975 21.2817C4.65002 21.2121 4.59468 21.1294 4.55691 21.0384C4.51913 20.9474 4.49965 20.8498 4.49958 20.7513C4.49951 20.6527 4.51885 20.5551 4.5565 20.4641C4.59415 20.373 4.64937 20.2902 4.719 20.2205L6.219 18.7205C6.28863 18.6508 6.37132 18.5954 6.46234 18.5577C6.55336 18.5199 6.65092 18.5004 6.74947 18.5003C6.84802 18.5003 6.94561 18.5196 7.03668 18.5573C7.12775 18.5949 7.21052 18.6501 7.28025 18.7197C7.34998 18.7894 7.40532 18.8721 7.44309 18.9631C7.48087 19.0541 7.50035 19.1517 7.50042 19.2502C7.50049 19.3488 7.48115 19.4464 7.4435 19.5374C7.40585 19.6285 7.35063 19.7113 7.281 19.781L5.781 21.281ZM19.281 6.719C19.2113 6.64915 19.1286 6.59374 19.0374 6.55593C18.9463 6.51812 18.8487 6.49866 18.75 6.49866C18.6513 6.49866 18.5537 6.51812 18.4626 6.55593C18.3714 6.59374 18.2887 6.64915 18.219 6.719L16.719 8.219C16.5782 8.35983 16.4991 8.55084 16.4991 8.75C16.4991 8.94916 16.5782 9.14017 16.719 9.281C16.8598 9.42183 17.0508 9.50095 17.25 9.50095C17.4492 9.50095 17.6402 9.42183 17.781 9.281L19.281 7.781C19.3508 7.71133 19.4063 7.62857 19.4441 7.53745C19.4819 7.44633 19.5013 7.34865 19.5013 7.25C19.5013 7.15135 19.4819 7.05367 19.4441 6.96255C19.4063 6.87143 19.3508 6.78867 19.281 6.719ZM18.219 21.281C18.3596 21.4218 18.5504 21.501 18.7495 21.5012C18.9485 21.5013 19.1394 21.4224 19.2803 21.2817C19.4211 21.1411 19.5003 20.9503 19.5004 20.7513C19.5006 20.5523 19.4216 20.3613 19.281 20.2205L17.781 18.7205C17.6404 18.5797 17.4496 18.5005 17.2505 18.5003C17.0515 18.5002 16.8606 18.5791 16.7197 18.7197C16.5789 18.8604 16.4997 19.0512 16.4996 19.2502C16.4994 19.4492 16.5784 19.6402 16.719 19.781L18.219 21.281Z" fill="#626C7F"/>
<rect x="40" width="48" height="28" rx="14" fill="#A729F5"/>
<circle cx="54" cy="14" r="10" fill="white"/>
<path d="M115.775 6.5225C117.046 6.62306 118.269 7.04571 119.331 7.75056C120.393 8.45541 121.258 9.41922 121.844 10.551C122.43 11.6828 122.717 12.9452 122.68 14.2191C122.643 15.493 122.281 16.7364 121.63 17.8319C120.979 18.9273 120.059 19.8388 118.958 20.4802C117.856 21.1215 116.61 21.4717 115.336 21.4976C114.061 21.5235 112.802 21.2242 111.675 20.6281C110.549 20.032 109.593 19.1586 108.898 18.0905C111.002 17.5205 113.872 16.1375 115.138 12.764C115.966 10.553 116.014 8.3555 115.775 6.5225ZM124.184 14C124.184 12.7916 123.941 11.5956 123.468 10.4834C122.996 9.37108 122.305 8.36529 121.435 7.52595C120.566 6.68661 119.537 6.03092 118.409 5.59798C117.28 5.16504 116.077 4.96371 114.869 5.006C114.761 5.00955 114.655 5.03643 114.558 5.0848C114.461 5.13317 114.376 5.20189 114.309 5.28623C114.241 5.37058 114.192 5.46857 114.166 5.57347C114.14 5.67838 114.137 5.78772 114.157 5.894C114.502 7.715 114.577 9.986 113.732 12.236C112.532 15.437 109.529 16.496 107.617 16.8425C107.503 16.8631 107.395 16.9097 107.302 16.9788C107.209 17.0479 107.134 17.1375 107.081 17.2406C107.029 17.3437 107.001 17.4576 107 17.5733C106.999 17.689 107.025 17.8034 107.075 17.9075C107.96 19.7448 109.442 21.2273 111.279 22.112C113.117 22.9967 115.2 23.2312 117.188 22.7772C119.176 22.3232 120.951 21.2075 122.222 19.6128C123.493 18.0182 124.185 16.0392 124.184 14Z" fill="#626C7F"/>
</svg>
