<svg width="21" height="16" viewBox="0 0 21 16" fill="none" xmlns="http://www.w3.org/2000/svg">
<path d="M16.127 1.49186C13.8836 1.49186 12.1905 2.97334 11.5132 5.30138C10.455 3.65059 9.60846 1.78815 9.14286 0.179688H6.77249V6.40191C6.77249 7.62942 5.75661 8.64529 4.5291 8.64529C3.30159 8.64529 2.28571 7.62942 2.28571 6.40191V0.222015H0V6.44424C0 9.02625 2.07407 11.1003 4.61376 11.1003C7.15344 11.1003 9.22751 9.02625 9.22751 6.44424V5.38604C9.69312 6.31725 10.2857 7.33313 10.9206 8.22201L9.43915 15.1215H11.8519L12.8677 10.0844C13.7989 10.677 14.8571 11.0157 16.127 11.0157C18.709 11.0157 20.8254 8.89926 20.8254 6.19027C20.8254 3.60826 18.709 1.49186 16.127 1.49186ZM16.127 8.64529C15.1958 8.64529 14.2222 8.22201 13.4603 7.58709L13.7143 6.65588V6.61355C13.8836 5.59768 14.4339 3.90455 16.1693 3.90455C17.4815 3.90455 18.5397 4.96276 18.5397 6.27492C18.4974 7.58709 17.3545 8.64529 16.127 8.64529Z" fill="#1A1A1A"/>
</svg>
